<svg width="745" height="828" viewBox="0 0 745 828" fill="none" xmlns="http://www.w3.org/2000/svg">
<path fill-rule="evenodd" clip-rule="evenodd" d="M838.833 660.766C794.783 708.218 721.031 712.169 672.164 669.694L106.674 178.173C51.1067 129.874 51.7345 43.3882 107.997 -4.09867L605.009 -423.589C653.369 -464.406 725.113 -460.654 768.951 -415.015L1233.84 68.9673C1277.9 114.839 1278.52 187.121 1235.24 233.737L838.833 660.766Z" fill="#A59458" fill-opacity="0.7"/>
<path fill-rule="evenodd" clip-rule="evenodd" d="M843.899 620.766C799.849 668.218 726.097 672.169 677.23 629.694L111.74 138.173C56.1725 89.8745 56.8003 3.38817 113.063 -44.0987L610.075 -463.589C658.434 -504.406 730.179 -500.654 774.017 -455.015L1238.91 28.9673C1282.97 74.8388 1283.58 147.121 1240.31 193.737L843.899 620.766Z" fill="#DABE9A"/>
</svg>
