<svg width="31" height="31" viewBox="0 0 31 31" fill="none" xmlns="http://www.w3.org/2000/svg">
<path d="M15.5337 0C6.95467 0 0 6.93959 0 15.5C0 24.0604 6.95467 31 15.5337 31C23.6069 31 30.2407 24.8553 30.9958 16.9966C31.031 16.6309 30.8426 16.2798 30.5182 16.1062C30.1937 15.9325 29.7964 15.9701 29.5105 16.2016C27.9395 17.4737 25.9388 18.2353 23.7574 18.2353C18.7109 18.2353 14.6199 14.1532 14.6199 9.11765C14.6199 6.12687 16.0621 3.47243 18.2943 1.80833C18.5894 1.58831 18.7232 1.21295 18.6337 0.856352C18.5442 0.499758 18.2488 0.231693 17.8846 0.176489C17.1174 0.0602163 16.3323 0 15.5337 0Z" fill="#3A3838" fill-opacity="0.7"/>
</svg>
