<svg width="31" height="31" viewBox="0 0 31 31" fill="none" xmlns="http://www.w3.org/2000/svg">
<path d="M15.5 0C16.0972 0 16.5814 0.484157 16.5814 1.0814V2.52326C16.5814 3.12049 16.0972 3.60465 15.5 3.60465C14.9028 3.60465 14.4186 3.12049 14.4186 2.52326V1.0814C14.4186 0.484157 14.9028 0 15.5 0Z" fill="white" fill-opacity="0.7"/>
<path d="M15.5 7.2093C10.9212 7.2093 7.2093 10.9212 7.2093 15.5C7.2093 20.0788 10.9212 23.7907 15.5 23.7907C20.0788 23.7907 23.7907 20.0788 23.7907 15.5C23.7907 10.9212 20.0788 7.2093 15.5 7.2093Z" fill="white" fill-opacity="0.7"/>
<path d="M6.06919 4.53988C5.64688 4.11757 4.96218 4.11757 4.53987 4.53988C4.11755 4.96219 4.11755 5.64689 4.53987 6.0692L5.55941 7.08875C5.98173 7.51106 6.66643 7.51106 7.08874 7.08875C7.51105 6.66644 7.51105 5.98174 7.08874 5.55943L6.06919 4.53988Z" fill="white" fill-opacity="0.7"/>
<path d="M31 15.5C31 16.0972 30.5158 16.5814 29.9186 16.5814H28.4767C27.8795 16.5814 27.3953 16.0972 27.3953 15.5C27.3953 14.9028 27.8795 14.4186 28.4767 14.4186H29.9186C30.5158 14.4186 31 14.9028 31 15.5Z" fill="white" fill-opacity="0.7"/>
<path d="M26.4601 6.06919C26.8824 5.64688 26.8824 4.96218 26.4601 4.53987C26.0378 4.11755 25.3531 4.11755 24.9308 4.53987L23.9112 5.55941C23.4889 5.98173 23.4889 6.66643 23.9112 7.08874C24.3336 7.51105 25.0183 7.51105 25.4406 7.08874L26.4601 6.06919Z" fill="white" fill-opacity="0.7"/>
<path d="M15.5 27.3953C16.0972 27.3953 16.5814 27.8795 16.5814 28.4767V29.9186C16.5814 30.5158 16.0972 31 15.5 31C14.9028 31 14.4186 30.5158 14.4186 29.9186V28.4767C14.4186 27.8795 14.9028 27.3953 15.5 27.3953Z" fill="white" fill-opacity="0.7"/>
<path d="M25.4407 23.9113C25.0184 23.489 24.3337 23.489 23.9113 23.9113C23.489 24.3336 23.489 25.0183 23.9113 25.4406L24.9309 26.4601C25.3532 26.8825 26.0379 26.8825 26.4602 26.4601C26.8825 26.0378 26.8825 25.3531 26.4602 24.9308L25.4407 23.9113Z" fill="white" fill-opacity="0.7"/>
<path d="M3.60465 15.5C3.60465 16.0972 3.12049 16.5814 2.52326 16.5814H1.0814C0.484157 16.5814 0 16.0972 0 15.5C0 14.9028 0.484157 14.4186 1.0814 14.4186H2.52326C3.12049 14.4186 3.60465 14.9028 3.60465 15.5Z" fill="white" fill-opacity="0.7"/>
<path d="M7.08864 25.4406C7.51095 25.0183 7.51095 24.3336 7.08864 23.9113C6.66633 23.4889 5.98163 23.4889 5.55932 23.9113L4.53977 24.9308C4.11746 25.3531 4.11746 26.0378 4.53977 26.4601C4.96208 26.8824 5.64678 26.8824 6.06909 26.4601L7.08864 25.4406Z" fill="white" fill-opacity="0.7"/>
</svg>
